<svg baseProfile="tiny" xmlns="http://www.w3.org/2000/svg" width="360" height="174"><g fill="#5e5a53"><path d="M10.761 160.376c-.309-.392-.701-.673-1.179-.841-.477-.169-.953-.253-1.43-.253h-3.366v12.454h-3.786v-29.241h13.295c1.233 0 2.37.189 3.408.567 1.037.379 1.928.926 2.671 1.642.743.715 1.326 1.577 1.747 2.588.42 1.01.63 2.145.63 3.407 0 2.497-.708 4.51-2.124 6.038-1.417 1.529-3.401 2.363-5.953 2.503l6.773 8.499c.505.646.953 1.031 1.347 1.157.393.126.883.189 1.473.189v2.65c-.309.168-.667.294-1.073.379-.407.084-.751.126-1.03.126-.814 0-1.551-.28-2.21-.842-.659-.561-1.255-1.163-1.788-1.809l-7.405-9.213zm-5.975-4.501h8.836c1.822 0 3.169-.422 4.039-1.263.868-.841 1.304-2.146 1.304-3.913 0-1.626-.414-2.825-1.241-3.597s-2.027-1.157-3.597-1.157h-9.341v9.93z"/><path d="M39.918 172.241c-2.44 0-4.531-.394-6.27-1.178-1.739-.785-3.155-1.858-4.25-3.219-1.094-1.36-1.899-2.966-2.418-4.817-.521-1.852-.779-3.829-.779-5.933v-1.136c0-1.991.315-3.843.947-5.554.631-1.711 1.535-3.191 2.713-4.439 1.179-1.248 2.616-2.223 4.313-2.924 1.696-.701 3.61-1.052 5.743-1.052 2.131 0 4.045.351 5.743 1.052 1.696.701 3.134 1.676 4.312 2.924 1.179 1.248 2.083 2.729 2.715 4.439.63 1.711.946 3.562.946 5.554v1.136c0 2.104-.26 4.081-.778 5.933-.52 1.852-1.325 3.457-2.419 4.817-1.095 1.36-2.512 2.434-4.25 3.219-1.74.785-3.829 1.178-6.268 1.178zm0-26.801c-1.572 0-2.96.281-4.166.843-1.206.562-2.224 1.321-3.05 2.276-.828.955-1.46 2.079-1.894 3.372-.436 1.292-.652 2.655-.652 4.088v.97c0 1.602.189 3.112.567 4.531.379 1.419.961 2.67 1.747 3.751.785 1.083 1.787 1.939 3.008 2.572 1.22.632 2.672.947 4.354.947 1.739 0 3.233-.302 4.481-.906 1.247-.604 2.272-1.433 3.07-2.486.8-1.054 1.382-2.297 1.747-3.73.364-1.433.547-2.992.547-4.679v-.97c0-1.433-.218-2.796-.652-4.088-.435-1.293-1.066-2.417-1.893-3.372-.828-.955-1.852-1.714-3.072-2.276-1.218-.561-2.601-.843-4.142-.843z"/><path d="M61.544 157.011c0 1.403.09 2.798.272 4.186.183 1.389.59 2.651 1.221 3.787s1.557 2.055 2.777 2.756c1.22.701 2.882 1.052 4.985 1.052 1.263 0 2.476-.231 3.64-.694 1.163-.463 2.194-1.17 3.093-2.124l2.65 2.482c-1.234 1.318-2.665 2.278-4.292 2.882-1.627.603-3.324.904-5.091.904-2.497 0-4.586-.386-6.269-1.157-1.684-.771-3.037-1.83-4.061-3.177-1.024-1.346-1.761-2.944-2.208-4.796-.45-1.852-.674-3.856-.674-6.017v-1.557c0-2.131.273-4.032.82-5.701s1.367-3.085 2.462-4.249c1.094-1.164 2.467-2.055 4.122-2.672s3.591-.926 5.807-.926c1.711 0 3.388.288 5.028.862 1.641.575 3.063 1.48 4.271 2.714l-2.566 2.566c-.87-.897-1.9-1.563-3.093-1.998s-2.406-.652-3.64-.652c-1.851 0-3.373.302-4.564.904-1.193.604-2.14 1.389-2.84 2.356-.702.968-1.187 2.055-1.452 3.261-.267 1.206-.399 2.413-.399 3.618v1.39z"/><path d="M89.228 142.495v12.79h2.945l8.372-12.79h4.334l-9.088 14.179 10.854 15.062h-4.543l-9.846-13.674h-3.029v13.674h-3.786v-29.241h3.787z"/><path d="M129.997 171.736h-20.91v-29.241h21.037l-1.094 3.45h-16.156v8.583h14.474v3.45h-14.474v10.308h17.123v3.45z"/><path d="M146.11 145.945v25.791h-3.786v-25.791h-9.761v-3.45h23.267l-1.094 3.45h-8.626z"/><path d="M179.096 162.9l-3.239 8.836h-4.038l10.896-29.241h4.713l11.443 29.241h-3.956l-3.407-8.836h-12.412zm1.093-3.113h10.098l-3.996-10.295-1.178-4.263-1.137 4.263-3.787 10.295z"/><path d="M201.395 149.899c0-1.43.31-2.65.927-3.66.616-1.01 1.423-1.83 2.419-2.461.995-.631 2.124-1.087 3.387-1.367s2.523-.421 3.786-.421c1.796 0 3.513.357 5.155 1.072 1.64.716 3.05 1.746 4.228 3.093l-2.733 2.44c-.9-1.065-1.951-1.852-3.157-2.356-1.207-.505-2.524-.757-3.954-.757-.701 0-1.416.084-2.146.252-.729.169-1.388.436-1.977.8-.591.365-1.074.813-1.453 1.346-.377.533-.567 1.151-.567 1.852 0 1.319.414 2.321 1.241 3.009.828.688 1.873 1.234 3.135 1.641 1.263.407 2.614.778 4.061 1.115 1.443.336 2.797.807 4.061 1.409 1.261.604 2.306 1.438 3.134 2.504.827 1.065 1.241 2.538 1.241 4.417 0 1.515-.352 2.806-1.051 3.871-.703 1.066-1.6 1.936-2.693 2.608-1.094.674-2.308 1.165-3.641 1.473-1.333.309-2.615.463-3.849.463-2.384 0-4.488-.54-6.311-1.619-1.824-1.08-3.284-2.658-4.378-4.733l3.284-1.726c.868 1.599 1.905 2.771 3.112 3.514 1.206.743 2.65 1.114 4.334 1.114.729 0 1.521-.069 2.377-.21.854-.141 1.655-.393 2.397-.758.744-.364 1.367-.869 1.873-1.515.505-.645.757-1.473.757-2.482 0-1.233-.421-2.18-1.263-2.84-.841-.658-1.892-1.199-3.155-1.62-1.263-.42-2.623-.806-4.08-1.156-1.459-.351-2.818-.834-4.082-1.452-1.263-.616-2.313-1.458-3.155-2.524-.843-1.067-1.264-2.511-1.264-4.336z"/><path d="M226.723 149.899c0-1.43.309-2.65.927-3.66.615-1.01 1.422-1.83 2.418-2.461.995-.631 2.124-1.087 3.387-1.367s2.524-.421 3.787-.421c1.795 0 3.513.357 5.154 1.072 1.64.716 3.05 1.746 4.228 3.093l-2.733 2.44c-.899-1.065-1.951-1.852-3.157-2.356-1.207-.505-2.523-.757-3.954-.757-.701 0-1.416.084-2.146.252-.729.169-1.388.436-1.976.8-.591.365-1.075.813-1.454 1.346-.377.533-.567 1.151-.567 1.852 0 1.319.414 2.321 1.242 3.009.827.688 1.873 1.234 3.134 1.641 1.263.407 2.615.778 4.061 1.115 1.443.336 2.798.807 4.061 1.409 1.261.604 2.306 1.438 3.134 2.504.828 1.065 1.241 2.538 1.241 4.417 0 1.515-.352 2.806-1.051 3.871-.703 1.066-1.599 1.936-2.692 2.608-1.095.674-2.309 1.165-3.642 1.473-1.333.309-2.615.463-3.849.463-2.384 0-4.488-.54-6.311-1.619-1.824-1.08-3.283-2.658-4.377-4.733l3.283-1.726c.868 1.599 1.906 2.771 3.112 3.514 1.207.743 2.65 1.114 4.335 1.114.729 0 1.521-.069 2.376-.21s1.655-.393 2.397-.758c.744-.364 1.368-.869 1.873-1.515.505-.645.758-1.473.758-2.482 0-1.233-.422-2.18-1.263-2.84-.842-.658-1.893-1.199-3.155-1.62-1.264-.42-2.623-.806-4.08-1.156-1.459-.351-2.819-.834-4.082-1.452-1.264-.616-2.314-1.458-3.155-2.524-.843-1.067-1.264-2.511-1.264-4.336z"/><path d="M255.543 142.495v29.241h-3.787v-29.241h3.787z"/><path d="M261.055 149.899c0-1.43.308-2.65.925-3.66.616-1.01 1.425-1.83 2.419-2.461.997-.631 2.126-1.087 3.387-1.367 1.263-.28 2.525-.421 3.786-.421 1.796 0 3.515.357 5.155 1.072 1.642.716 3.05 1.746 4.229 3.093l-2.735 2.44c-.898-1.065-1.951-1.852-3.155-2.356-1.207-.505-2.524-.757-3.956-.757-.701 0-1.416.084-2.145.252-.731.169-1.39.436-1.979.8-.589.365-1.072.813-1.451 1.346-.379.533-.567 1.151-.567 1.852 0 1.319.412 2.321 1.239 3.009.828.688 1.873 1.234 3.136 1.641 1.262.407 2.615.778 4.06 1.115 1.445.336 2.799.807 4.061 1.409 1.263.604 2.308 1.438 3.136 2.504.825 1.065 1.239 2.538 1.239 4.417 0 1.515-.35 2.806-1.051 3.871-.701 1.066-1.6 1.936-2.693 2.608-1.094.674-2.308 1.165-3.639 1.473-1.333.309-2.615.463-3.851.463-2.384 0-4.488-.54-6.311-1.619-1.824-1.08-3.282-2.658-4.376-4.733l3.282-1.726c.868 1.599 1.907 2.771 3.114 3.514 1.204.743 2.65 1.114 4.332 1.114.729 0 1.521-.069 2.379-.21.854-.141 1.653-.393 2.397-.758.742-.364 1.367-.869 1.873-1.515.503-.645.755-1.473.755-2.482 0-1.233-.419-2.18-1.261-2.84-.841-.658-1.894-1.199-3.155-1.62-1.263-.42-2.623-.806-4.082-1.156s-2.818-.834-4.082-1.452c-1.261-.616-2.313-1.458-3.155-2.524-.84-1.067-1.26-2.511-1.26-4.336z"/><path d="M297.068 145.945v25.791h-3.787v-25.791h-9.761v-3.45h23.268l-1.094 3.45h-8.626z"/><path d="M330.012 171.736h-20.909v-29.241h21.035l-1.094 3.45h-16.155v8.583h14.473v3.45h-14.473v10.308h17.123v3.45z"/><path d="M347.766 171.736h-12.873v-29.241h12.79c2.074 0 3.829.393 5.259 1.178 1.43.786 2.594 1.852 3.491 3.198.897 1.346 1.551 2.902 1.957 4.67s.61 3.633.61 5.596c0 2.104-.184 4.047-.547 5.827-.365 1.781-.982 3.323-1.852 4.628-.87 1.305-2.026 2.321-3.472 3.051-1.442.729-3.232 1.093-5.363 1.093zm-9.087-3.45h8.582c1.543 0 2.813-.28 3.808-.841.997-.562 1.774-1.34 2.336-2.336.562-.995.946-2.173 1.157-3.534.21-1.359.315-2.84.315-4.438 0-1.542-.127-2.993-.379-4.354-.253-1.36-.673-2.546-1.263-3.556-.589-1.01-1.374-1.809-2.355-2.397-.982-.59-2.203-.884-3.66-.884h-8.541v22.34z"/><polygon points="179.984,99.386 183.695,110.807 195.704,110.807 185.988,117.866 189.698,129.288 179.984,122.229 170.268,129.288 173.979,117.866 164.262,110.807 176.271,110.807"/><rect x="1" y="120.335" width="144.239" height=".995"/><rect x="214.76" y="120.335" width="144.24" height=".995"/><rect x="214.76" y="113.37" width="144.24" height=".994"/><rect x="1" y="113.37" width="144.239" height=".994"/><rect x="214.76" y="106.405" width="144.24" height=".995"/><rect x="1" y="106.405" width="144.239" height=".995"/><path d="M18.506 82.098h10.694v3.119h-13.925v-66.839h-14.258v-11.139h3.119v8.02h14.37v66.839zm30.301-80.095v11.14h-14.371v66.837h-13.925v-66.837h-14.259v-11.14h42.555zm-12.254 13.256h7.018v3.119h-7.018v-3.119z"/><path d="M64.739 82.098l-3.119 3.119h-13.034l15.93-77.978 2.562-2.451-15.93 77.31h13.591zm18.269-20.275h-13.479l-2.674 18.157h-13.145l16.042-77.977h13.924l16.042 77.977h-13.925l-2.785-18.157zm14.593 20.275l-3.119 3.119h-13.925l-2.673-18.047h-7.018l.444-3.119h10.026l2.562 18.047h13.703zm-16.821-31.414l-4.233-27.961h-.334l-4.345 27.961h8.912zm-4.456-15.262l2.005 13.368h-3.899l-.11-.78 2.004-12.588z"/><path d="M112.531 82.209h10.805v3.119h-13.924v-77.978h3.119v74.859zm31.302-2.229l-14.259-29.854h-.669l-.444.557v29.297h-13.925v-77.977h13.925v27.85h.334l13.591-27.85h13.256l-18.715 34.756 22.947 43.222h-16.041zm9.135 2.229l1.671 3.119h-15.93l-8.132-16.933v-11.362l11.919 25.176h10.472z"/><path d="M169.793 82.098h32.082v3.23h-35.202v-77.978h3.12v74.748zm37.317-13.369v11.251h-35.202v-77.977h33.643v11.251h-19.718v19.049h14.036v11.14h-14.036v25.287h21.277zm-19.271-50.24v-3.23h12.476v3.23h-12.476zm0 30.189v-3.118h6.905v3.118h-6.905z"/><path d="M241.758 83.211c3.229 0 6.126-.557 8.8-1.336-3.231 2.673-7.909 4.456-13.925 4.456-15.484 0-20.942-9.581-20.942-17.489v-45.005c0-3.788 1.113-7.798 3.899-11.028-.447 1.894-.781 3.898-.781 5.793v45.004c0 9.691 7.019 19.605 22.949 19.605zm20.162-64.722v45.005c0 7.909-6.237 17.489-20.162 17.489-15.374 0-20.831-9.58-20.831-17.378v-45.116c0-7.908 5.457-17.489 20.831-17.489 13.925 0 20.162 9.581 20.162 17.489zm-13.925 0c0-2.339-2.227-6.349-6.237-6.349-4.901 0-6.906 4.01-6.906 6.237v44.894c0 2.562 2.005 6.572 6.906 6.572 4.011 0 6.237-4.233 6.237-6.572v-44.782zm-2.005.113v44.781c0 1.113-1.113 3.676-3.119 4.345v-43.891c0-2.339-2.115-6.016-5.791-6.461.444-1.226 1.892-3.119 4.678-3.119 2.784 0 4.232 3.007 4.232 4.345z"/><path d="M275.959 82.098h10.693v3.23h-13.813v-77.978h3.12v74.748zm35.535-80.095v11.251h-19.605v19.049h14.035v11.14h-14.035v36.537h-13.925v-77.977h33.53zm-17.6 13.256h12.476v3.23h-12.476v-3.23zm0 30.301h6.794v3.118h-6.794v-3.118z"/><path d="M323.416 82.098h10.693v3.23h-13.814v-77.978h3.121v74.748zm35.535-80.095v11.251h-19.605v19.049h14.035v11.14h-14.035v36.537h-13.925v-77.977h33.53zm-17.6 13.256h12.475v3.23h-12.475v-3.23zm0 30.301h6.794v3.118h-6.794v-3.118z"/></g></svg>